<?xml version="1.0" standalone="no"?><!DOCTYPE svg PUBLIC "-//W3C//DTD SVG 1.1//EN" "http://www.w3.org/Graphics/SVG/1.1/DTD/svg11.dtd"><svg t="1571909372062" class="icon" viewBox="0 0 1024 1024" version="1.1" xmlns="http://www.w3.org/2000/svg" p-id="3714" xmlns:xlink="http://www.w3.org/1999/xlink" width="128" height="128"><defs><style type="text/css"></style></defs><path d="M160 736H32a32 32 0 0 0-32 32v128a32 32 0 0 0 32 32h128a32 32 0 0 0 32-32v-128a32 32 0 0 0-32-32z m0-640H32A32 32 0 0 0 0 128v128a32 32 0 0 0 32 32h128a32 32 0 0 0 32-32V128a32 32 0 0 0-32-32z m0 320H32a32 32 0 0 0-32 32v128a32 32 0 0 0 32 32h128a32 32 0 0 0 32-32v-128a32 32 0 0 0-32-32z m832 352H352a32 32 0 0 0-32 32v64a32 32 0 0 0 32 32h640a32 32 0 0 0 32-32v-64a32 32 0 0 0-32-32z m0-640H352a32 32 0 0 0-32 32v64a32 32 0 0 0 32 32h640a32 32 0 0 0 32-32V160a32 32 0 0 0-32-32z m0 320H352a32 32 0 0 0-32 32v64a32 32 0 0 0 32 32h640a32 32 0 0 0 32-32v-64a32 32 0 0 0-32-32z" p-id="3715"></path></svg>