<?xml version="1.0" standalone="no"?><!DOCTYPE svg PUBLIC "-//W3C//DTD SVG 1.1//EN" "http://www.w3.org/Graphics/SVG/1.1/DTD/svg11.dtd"><svg t="1571715726306" class="icon" viewBox="0 0 1024 1024" version="1.1" xmlns="http://www.w3.org/2000/svg" p-id="4402" xmlns:xlink="http://www.w3.org/1999/xlink" width="128" height="128"><defs><style type="text/css"></style></defs><path d="M511.8 0.4C229.5 0.4 0 230 0 512.2S229.5 1024 511.8 1024s511.8-229.6 511.8-511.8S794 0.4 511.8 0.4z m0 950.2c-241.7 0-438.3-196.7-438.3-438.3S270.1 73.9 511.8 73.9s438.3 196.7 438.3 438.3-196.7 438.4-438.3 438.4z" fill="" p-id="4403"></path><path d="M369 659.1c0 40.5 28.7 57.1 63.8 36.8L685.4 550c35.1-20.3 35.1-53.4 0-73.6L432.7 330.5c-35.1-20.3-63.8-3.7-63.8 36.8 0.1 0 0.1 291.8 0.1 291.8z" fill="" p-id="4404"></path></svg>