<?xml version="1.0" standalone="no"?><!DOCTYPE svg PUBLIC "-//W3C//DTD SVG 1.1//EN" "http://www.w3.org/Graphics/SVG/1.1/DTD/svg11.dtd"><svg t="1571715733020" class="icon" viewBox="0 0 1024 1024" version="1.1" xmlns="http://www.w3.org/2000/svg" p-id="4525" xmlns:xlink="http://www.w3.org/1999/xlink" width="128" height="128"><defs><style type="text/css"></style></defs><path d="M512.656457 8.442514c-277.736229 0-502.857143 225.1392-502.857143 502.857143 0 277.736229 225.120914 502.857143 502.857143 502.857143s502.857143-225.120914 502.857143-502.857143C1015.5136 233.581714 790.392686 8.442514 512.656457 8.442514L512.656457 8.442514zM512.656457 942.319543c-237.677714 0-431.019886-193.340343-431.019886-431.019886 0-237.661257 193.342171-431.019886 431.019886-431.019886s431.019886 193.358629 431.019886 431.019886C943.676343 748.9792 750.336 942.319543 512.656457 942.319543L512.656457 942.319543zM382.171429 371.2l276.114286 0 0 298.057143-276.114286 0 0-298.057143ZM680.228571 651.298743c0 9.918171-8.040229 17.9584-17.9584 17.9584L374.529829 669.257143c-9.918171 0-17.9584-8.040229-17.9584-17.9584L356.571429 363.5584c0-9.918171 8.040229-17.9584 17.9584-17.9584l287.738514 0c9.918171 0 17.9584 8.040229 17.9584 17.9584L680.226743 651.298743zM391.314286 632.685714l252.342857 0L643.657143 382.171429 391.314286 382.171429 391.314286 632.685714z" p-id="4526"></path></svg>